<svg width="40" height="40" viewBox="0 0 40 40" fill="none" xmlns="http://www.w3.org/2000/svg">
<g clip-path="url(#clip0_259_720)">
<path d="M7.04541 11.632C6.39822 11.632 5.87354 12.1566 5.87354 12.8038V13.572C5.87354 14.2192 6.39822 14.7439 7.04541 14.7439C7.6926 14.7439 8.21729 14.2192 8.21729 13.572V12.8038C8.21729 12.1566 7.6926 11.632 7.04541 11.632Z" fill="#5AB060"/>
<path d="M13.5723 5.87366C12.9251 5.87366 12.4004 6.39834 12.4004 7.04553V7.69827C12.4004 8.34545 12.9251 8.87014 13.5723 8.87014C14.2195 8.87014 14.7441 8.34545 14.7441 7.69827V7.04553C14.7441 6.39834 14.2195 5.87366 13.5723 5.87366Z" fill="#5AB060"/>
<path d="M39.6567 25.0778L26.7352 12.1562C26.2775 11.6986 25.5355 11.6986 25.0779 12.1562L20.6177 16.6165V1.17188C20.6177 0.524687 20.093 0 19.4458 0H1.17188C0.524687 0 0 0.524687 0 1.17188V19.4458C0 20.093 0.524687 20.6177 1.17188 20.6177H16.6165L12.1562 25.0779C11.6986 25.5355 11.6986 26.2775 12.1562 26.7352L25.0778 39.6567C25.5355 40.1144 26.2775 40.1144 26.7352 39.6567L39.6568 26.7352C40.1144 26.2775 40.1144 25.5355 39.6567 25.0778ZM2.34375 2.34375H18.2739V18.2739H2.34375V2.34375ZM25.9065 37.1709L14.6422 25.9065L25.9065 14.6422L37.1708 25.9065L25.9065 37.1709Z" fill="#5AB060"/>
<path d="M21.0061 24.5346L20.4629 25.0779C20.0052 25.5355 20.0052 26.2775 20.4629 26.7351C20.9205 27.1928 21.6625 27.1928 22.1201 26.7351L22.6633 26.1919C23.121 25.7343 23.121 24.9923 22.6633 24.5346C22.2057 24.077 21.4637 24.077 21.0061 24.5346Z" fill="#5AB060"/>
<path d="M30.8887 27.1967L31.3503 26.7351C31.8079 26.2775 31.8079 25.5355 31.3503 25.0779C30.8926 24.6202 30.1506 24.6202 29.693 25.0779L29.2314 25.5394C28.7738 25.9971 28.7738 26.739 29.2314 27.1967C29.689 27.6543 30.431 27.6543 30.8887 27.1967Z" fill="#5AB060"/>
<path d="M25.6213 29.1495L25.0781 29.6927C24.6204 30.1504 24.6204 30.8923 25.0781 31.35C25.5358 31.8076 26.2777 31.8076 26.7354 31.35L27.2786 30.8068C27.7362 30.3491 27.7362 29.6072 27.2786 29.1495C26.8209 28.6919 26.079 28.6919 25.6213 29.1495Z" fill="#5AB060"/>
<path d="M24.6162 20.9244C24.1585 21.3821 24.1585 22.124 24.6162 22.5817C25.0738 23.0394 25.8158 23.0394 26.2735 22.5817L26.735 22.1201C27.1927 21.6625 27.1927 20.9205 26.735 20.4629C26.2774 20.0052 25.5354 20.0052 25.0778 20.4629L24.6162 20.9244Z" fill="#5AB060"/>
</g>
<defs>
<clipPath id="clip0_259_720">
<rect width="40" height="40" fill="white"/>
</clipPath>
</defs>
</svg>
